<mxfile host="app.diagrams.net" modified="2023-01-27T02:53:35.765Z" agent="5.0 (Macintosh; Intel Mac OS X 10_15_7) AppleWebKit/537.36 (KHTML, like Gecko) Chrome/109.0.0.0 Safari/537.36" etag="UP-S1pe3SXwMMAf86yI7" version="20.8.8" type="github">
  <diagram name="第 1 页" id="Bo4sXE9dyVkVFhJZGGRL">
    <mxGraphModel dx="637" dy="1577" grid="1" gridSize="10" guides="1" tooltips="1" connect="1" arrows="1" fold="1" page="1" pageScale="1" pageWidth="827" pageHeight="1169" math="0" shadow="0">
      <root>
        <mxCell id="0" />
        <mxCell id="1" parent="0" />
        <mxCell id="QnnA91DxhKW6ZJpCzhPi-42" value="" style="group" vertex="1" connectable="0" parent="1">
          <mxGeometry y="-40" width="690" height="600" as="geometry" />
        </mxCell>
        <mxCell id="QnnA91DxhKW6ZJpCzhPi-37" value="Base 指针：外部线程从尾部获取" style="text;html=1;strokeColor=none;fillColor=none;align=center;verticalAlign=middle;whiteSpace=wrap;rounded=0;fontSize=16;fontColor=#FF0000;container=0;" vertex="1" parent="QnnA91DxhKW6ZJpCzhPi-42">
          <mxGeometry x="300" y="570" width="250" height="30" as="geometry" />
        </mxCell>
        <mxCell id="QnnA91DxhKW6ZJpCzhPi-20" value="" style="shape=flexArrow;endArrow=classic;html=1;rounded=0;fontSize=16;fontColor=#000000;fillColor=#ffff88;strokeColor=#36393d;" edge="1" parent="QnnA91DxhKW6ZJpCzhPi-42">
          <mxGeometry width="50" height="50" relative="1" as="geometry">
            <mxPoint y="140" as="sourcePoint" />
            <mxPoint x="100" y="140" as="targetPoint" />
          </mxGeometry>
        </mxCell>
        <mxCell id="QnnA91DxhKW6ZJpCzhPi-21" value="外部线程任务" style="text;html=1;strokeColor=none;fillColor=none;align=center;verticalAlign=middle;whiteSpace=wrap;rounded=0;fontSize=16;fontColor=#000000;container=0;" vertex="1" parent="QnnA91DxhKW6ZJpCzhPi-42">
          <mxGeometry y="90" width="100" height="30" as="geometry" />
        </mxCell>
        <mxCell id="QnnA91DxhKW6ZJpCzhPi-1" value="&lt;font style=&quot;font-size: 25px;&quot; color=&quot;#ff0000&quot;&gt;ForkJoin&lt;/font&gt;" style="text;html=1;strokeColor=none;fillColor=none;align=center;verticalAlign=middle;whiteSpace=wrap;rounded=0;container=0;" vertex="1" parent="QnnA91DxhKW6ZJpCzhPi-42">
          <mxGeometry x="348.75" width="110" height="30" as="geometry" />
        </mxCell>
        <mxCell id="QnnA91DxhKW6ZJpCzhPi-2" value="" style="rounded=0;whiteSpace=wrap;html=1;fontSize=25;fontColor=#FF0000;container=0;" vertex="1" parent="QnnA91DxhKW6ZJpCzhPi-42">
          <mxGeometry x="117.5" y="40" width="572.5" height="290" as="geometry" />
        </mxCell>
        <mxCell id="QnnA91DxhKW6ZJpCzhPi-3" value="&lt;font style=&quot;font-size: 18px;&quot;&gt;外部提交队列&lt;/font&gt;" style="rounded=1;whiteSpace=wrap;html=1;fontSize=25;fillColor=#d5e8d4;strokeColor=#82b366;container=0;" vertex="1" parent="QnnA91DxhKW6ZJpCzhPi-42">
          <mxGeometry x="150" y="120" width="120" height="30" as="geometry" />
        </mxCell>
        <mxCell id="QnnA91DxhKW6ZJpCzhPi-6" value="&lt;font style=&quot;font-size: 18px;&quot;&gt;外部提交队列&lt;/font&gt;" style="rounded=1;whiteSpace=wrap;html=1;fontSize=25;fillColor=#d5e8d4;strokeColor=#82b366;container=0;" vertex="1" parent="QnnA91DxhKW6ZJpCzhPi-42">
          <mxGeometry x="354" y="120" width="120" height="30" as="geometry" />
        </mxCell>
        <mxCell id="QnnA91DxhKW6ZJpCzhPi-7" value="&lt;font style=&quot;font-size: 18px;&quot;&gt;外部提交队列&lt;/font&gt;" style="rounded=1;whiteSpace=wrap;html=1;fontSize=25;fillColor=#d5e8d4;strokeColor=#82b366;container=0;" vertex="1" parent="QnnA91DxhKW6ZJpCzhPi-42">
          <mxGeometry x="540" y="120" width="120" height="30" as="geometry" />
        </mxCell>
        <mxCell id="QnnA91DxhKW6ZJpCzhPi-24" style="edgeStyle=orthogonalEdgeStyle;rounded=0;orthogonalLoop=1;jettySize=auto;html=1;entryX=1;entryY=0.5;entryDx=0;entryDy=0;fontSize=16;fontColor=#000000;" edge="1" parent="QnnA91DxhKW6ZJpCzhPi-42" target="QnnA91DxhKW6ZJpCzhPi-9">
          <mxGeometry relative="1" as="geometry">
            <mxPoint x="360" y="255" as="sourcePoint" />
            <Array as="points">
              <mxPoint x="310" y="255" />
              <mxPoint x="310" y="185" />
            </Array>
          </mxGeometry>
        </mxCell>
        <mxCell id="QnnA91DxhKW6ZJpCzhPi-31" value="&lt;font style=&quot;font-size: 11px;&quot;&gt;可以窃取&lt;br&gt;其他线程&lt;br&gt;任务执行&lt;br&gt;&lt;/font&gt;" style="edgeLabel;html=1;align=center;verticalAlign=middle;resizable=0;points=[];fontSize=16;fontColor=#000000;container=0;" vertex="1" connectable="0" parent="QnnA91DxhKW6ZJpCzhPi-24">
          <mxGeometry x="0.202" y="2" relative="1" as="geometry">
            <mxPoint as="offset" />
          </mxGeometry>
        </mxCell>
        <mxCell id="QnnA91DxhKW6ZJpCzhPi-25" value="Task1" style="rounded=0;whiteSpace=wrap;html=1;fontSize=16;fillColor=#dae8fc;strokeColor=#6c8ebf;container=0;" vertex="1" parent="QnnA91DxhKW6ZJpCzhPi-42">
          <mxGeometry x="125" y="440" width="120" height="60" as="geometry" />
        </mxCell>
        <mxCell id="QnnA91DxhKW6ZJpCzhPi-26" value="Task2" style="rounded=0;whiteSpace=wrap;html=1;fontSize=16;fillColor=#dae8fc;strokeColor=#6c8ebf;container=0;" vertex="1" parent="QnnA91DxhKW6ZJpCzhPi-42">
          <mxGeometry x="245" y="440" width="120" height="60" as="geometry" />
        </mxCell>
        <mxCell id="QnnA91DxhKW6ZJpCzhPi-27" value="Task3" style="rounded=0;whiteSpace=wrap;html=1;fontSize=16;fillColor=#dae8fc;strokeColor=#6c8ebf;container=0;" vertex="1" parent="QnnA91DxhKW6ZJpCzhPi-42">
          <mxGeometry x="365" y="440" width="120" height="60" as="geometry" />
        </mxCell>
        <mxCell id="QnnA91DxhKW6ZJpCzhPi-28" value="" style="shape=flexArrow;endArrow=classic;html=1;rounded=0;fontSize=16;fontColor=#000000;fillColor=#ffcc99;strokeColor=#36393d;" edge="1" parent="QnnA91DxhKW6ZJpCzhPi-42">
          <mxGeometry width="50" height="50" relative="1" as="geometry">
            <mxPoint x="184.76" y="370" as="sourcePoint" />
            <mxPoint x="184.76" y="440" as="targetPoint" />
          </mxGeometry>
        </mxCell>
        <mxCell id="QnnA91DxhKW6ZJpCzhPi-29" value="" style="shape=flexArrow;endArrow=classic;html=1;rounded=0;fontSize=16;fontColor=#000000;fillColor=#ffcc99;strokeColor=#36393d;" edge="1" parent="QnnA91DxhKW6ZJpCzhPi-42">
          <mxGeometry width="50" height="50" relative="1" as="geometry">
            <mxPoint x="425" y="560" as="sourcePoint" />
            <mxPoint x="424.76" y="500" as="targetPoint" />
          </mxGeometry>
        </mxCell>
        <mxCell id="QnnA91DxhKW6ZJpCzhPi-30" value="采用双端队列，top 头部放入，base 尾部偷取，提高性能，避免多个线程发生获取任务的竞争" style="text;html=1;strokeColor=none;fillColor=none;align=left;verticalAlign=middle;whiteSpace=wrap;rounded=0;fontSize=16;fontColor=#000000;container=0;" vertex="1" parent="QnnA91DxhKW6ZJpCzhPi-42">
          <mxGeometry x="210" y="390" width="370" height="30" as="geometry" />
        </mxCell>
        <mxCell id="QnnA91DxhKW6ZJpCzhPi-35" value="&lt;font style=&quot;font-size: 16px;&quot; color=&quot;#ff0000&quot;&gt;CAS&lt;/font&gt;" style="text;html=1;strokeColor=none;fillColor=none;align=center;verticalAlign=middle;whiteSpace=wrap;rounded=0;fontSize=11;fontColor=#000000;container=0;" vertex="1" parent="QnnA91DxhKW6ZJpCzhPi-42">
          <mxGeometry x="120" y="390" width="40" height="30" as="geometry" />
        </mxCell>
        <mxCell id="QnnA91DxhKW6ZJpCzhPi-36" value="Top 指针：内部线程从这里获取" style="text;html=1;strokeColor=none;fillColor=none;align=center;verticalAlign=middle;whiteSpace=wrap;rounded=0;fontSize=16;fontColor=#FF0000;container=0;" vertex="1" parent="QnnA91DxhKW6ZJpCzhPi-42">
          <mxGeometry x="80" y="340" width="232.5" height="30" as="geometry" />
        </mxCell>
        <mxCell id="QnnA91DxhKW6ZJpCzhPi-9" value="&lt;font style=&quot;font-size: 16px;&quot;&gt;工作窃取队列&lt;/font&gt;" style="rounded=0;whiteSpace=wrap;html=1;fontSize=18;fontColor=#ffffff;fillColor=#1ba1e2;strokeColor=#006EAF;container=0;" vertex="1" parent="QnnA91DxhKW6ZJpCzhPi-42">
          <mxGeometry x="150" y="170" width="120" height="30" as="geometry" />
        </mxCell>
        <mxCell id="QnnA91DxhKW6ZJpCzhPi-23" style="edgeStyle=orthogonalEdgeStyle;rounded=0;orthogonalLoop=1;jettySize=auto;html=1;exitX=0;exitY=0.5;exitDx=0;exitDy=0;entryX=0;entryY=0.5;entryDx=0;entryDy=0;fontSize=16;fontColor=#000000;" edge="1" parent="QnnA91DxhKW6ZJpCzhPi-42" source="QnnA91DxhKW6ZJpCzhPi-10" target="QnnA91DxhKW6ZJpCzhPi-9">
          <mxGeometry relative="1" as="geometry" />
        </mxCell>
        <mxCell id="QnnA91DxhKW6ZJpCzhPi-10" value="内部线程" style="rounded=0;whiteSpace=wrap;html=1;fontSize=16;fillColor=#fff2cc;strokeColor=#d6b656;container=0;" vertex="1" parent="QnnA91DxhKW6ZJpCzhPi-42">
          <mxGeometry x="150" y="200" width="120" height="110" as="geometry" />
        </mxCell>
        <mxCell id="QnnA91DxhKW6ZJpCzhPi-14" value="&lt;font style=&quot;font-size: 16px;&quot;&gt;工作窃取队列&lt;/font&gt;" style="rounded=0;whiteSpace=wrap;html=1;fontSize=18;fontColor=#ffffff;fillColor=#1ba1e2;strokeColor=#006EAF;container=0;" vertex="1" parent="QnnA91DxhKW6ZJpCzhPi-42">
          <mxGeometry x="353" y="170" width="120" height="30" as="geometry" />
        </mxCell>
        <mxCell id="QnnA91DxhKW6ZJpCzhPi-41" style="edgeStyle=orthogonalEdgeStyle;rounded=0;orthogonalLoop=1;jettySize=auto;html=1;entryX=1;entryY=0.5;entryDx=0;entryDy=0;fontSize=16;fontColor=#FF0000;" edge="1" parent="QnnA91DxhKW6ZJpCzhPi-42" source="QnnA91DxhKW6ZJpCzhPi-15" target="QnnA91DxhKW6ZJpCzhPi-3">
          <mxGeometry relative="1" as="geometry">
            <Array as="points">
              <mxPoint x="310" y="255" />
              <mxPoint x="310" y="135" />
            </Array>
          </mxGeometry>
        </mxCell>
        <mxCell id="QnnA91DxhKW6ZJpCzhPi-15" value="内部线程" style="rounded=0;whiteSpace=wrap;html=1;fontSize=16;fillColor=#fff2cc;strokeColor=#d6b656;container=0;" vertex="1" parent="QnnA91DxhKW6ZJpCzhPi-42">
          <mxGeometry x="353" y="200" width="120" height="110" as="geometry" />
        </mxCell>
        <mxCell id="QnnA91DxhKW6ZJpCzhPi-17" value="&lt;font style=&quot;font-size: 16px;&quot;&gt;工作窃取队列&lt;/font&gt;" style="rounded=0;whiteSpace=wrap;html=1;fontSize=18;fontColor=#ffffff;fillColor=#1ba1e2;strokeColor=#006EAF;container=0;" vertex="1" parent="QnnA91DxhKW6ZJpCzhPi-42">
          <mxGeometry x="540" y="170" width="120" height="30" as="geometry" />
        </mxCell>
        <mxCell id="QnnA91DxhKW6ZJpCzhPi-18" value="内部线程" style="rounded=0;whiteSpace=wrap;html=1;fontSize=16;fillColor=#fff2cc;strokeColor=#d6b656;container=0;" vertex="1" parent="QnnA91DxhKW6ZJpCzhPi-42">
          <mxGeometry x="540" y="200" width="120" height="110" as="geometry" />
        </mxCell>
        <mxCell id="QnnA91DxhKW6ZJpCzhPi-39" value="负载均衡(hashCode)实现任务向队列的存放" style="rounded=0;whiteSpace=wrap;html=1;fontSize=16;fontColor=#FF0000;" vertex="1" parent="QnnA91DxhKW6ZJpCzhPi-42">
          <mxGeometry x="261.75" y="60" width="326.5" height="30" as="geometry" />
        </mxCell>
        <mxCell id="QnnA91DxhKW6ZJpCzhPi-43" value="" style="shape=singleArrow;whiteSpace=wrap;html=1;fontSize=16;fillColor=#f8cecc;strokeColor=#b85450;" vertex="1" parent="1">
          <mxGeometry x="700" y="130" width="210" height="60" as="geometry" />
        </mxCell>
        <mxCell id="QnnA91DxhKW6ZJpCzhPi-44" value="&lt;div style=&quot;text-align: left;&quot;&gt;&lt;span style=&quot;color: rgb(0, 0, 0); background-color: initial;&quot;&gt;外部队列以及线程&lt;/span&gt;&lt;/div&gt;&lt;font color=&quot;#000000&quot;&gt;队列怎么存储：数据结构&lt;/font&gt;" style="text;html=1;align=center;verticalAlign=middle;resizable=0;points=[];autosize=1;strokeColor=none;fillColor=none;fontSize=16;fontColor=#FF0000;" vertex="1" parent="1">
          <mxGeometry x="700" y="80" width="200" height="50" as="geometry" />
        </mxCell>
        <mxCell id="QnnA91DxhKW6ZJpCzhPi-47" value="" style="rounded=0;whiteSpace=wrap;html=1;strokeColor=#6c8ebf;fontSize=16;fillColor=#dae8fc;" vertex="1" parent="1">
          <mxGeometry x="910" y="130" width="120" height="60" as="geometry" />
        </mxCell>
        <mxCell id="QnnA91DxhKW6ZJpCzhPi-49" value="考虑到读取性能：&lt;br&gt;&lt;ol&gt;&lt;li&gt;使用数组保存，&lt;/li&gt;&lt;li&gt;其次数组具有空间局部性，能够使用缓存行加速；&lt;/li&gt;&lt;/ol&gt;" style="text;html=1;strokeColor=none;fillColor=none;align=left;verticalAlign=middle;whiteSpace=wrap;rounded=0;fontSize=16;fontColor=#000000;" vertex="1" parent="1">
          <mxGeometry x="900" y="10" width="240" height="110" as="geometry" />
        </mxCell>
        <mxCell id="QnnA91DxhKW6ZJpCzhPi-50" value="通过奇偶性来区分两个队列，所以从奇数 index 和偶数 index 区分外部提交队列、内部提交队列；" style="text;html=1;strokeColor=none;fillColor=none;align=left;verticalAlign=middle;whiteSpace=wrap;rounded=0;fontSize=16;fontColor=#000000;" vertex="1" parent="1">
          <mxGeometry x="900" y="205" width="240" height="110" as="geometry" />
        </mxCell>
        <mxCell id="QnnA91DxhKW6ZJpCzhPi-51" value="" style="rounded=0;whiteSpace=wrap;html=1;strokeColor=#d6b656;fontSize=16;fillColor=#fff2cc;" vertex="1" parent="1">
          <mxGeometry x="1030" y="130" width="120" height="60" as="geometry" />
        </mxCell>
      </root>
    </mxGraphModel>
  </diagram>
</mxfile>
